<svg xmlns="http://www.w3.org/2000/svg" viewBox="0 0 30 30" width="30" height="30" aria-hidden="true">
  <g fill="none" stroke="#231f20" stroke-width="1.8" stroke-linejoin="round">
    <path d="M16.5 4.2h6.1c0.7 0 1.2 0.5 1.2 1.2v6.1c0 0.3-0.1 0.6-0.4 0.9l-8.4 8.4c-0.5 0.5-1.2 0.5-1.7 0l-6.1-6.1c-0.5-0.5-0.5-1.2 0-1.7l8.4-8.4c0.3-0.3 0.6-0.4 0.9-0.4z"/>
  </g>
  <circle cx="20" cy="9" r="1.7" fill="#231f20"/>
  <path d="M10.5 4.2h6.1c0.7 0 1.2 0.5 1.2 1.2v6.1c0 0.3-0.1 0.6-0.4 0.9l-8.4 8.4c-0.5 0.5-1.2 0.5-1.7 0l-6.1-6.1c-0.5-0.5-0.5-1.2 0-1.7l8.4-8.4c0.3-0.3 0.6-0.4 0.9-0.4z" fill="#231f20"/>
  <circle cx="14" cy="9" r="1.7" fill="#ffffff"/>
</svg>
